name Walk6.mot
datacolumns 19
datarows 15
range 1.51500000 1.58500000
endheader

                time	   L_ground_force_vx	   L_ground_force_vy	   L_ground_force_vz	   L_ground_force_px	   L_ground_force_py	   L_ground_force_pz	   R_ground_force_vx	   R_ground_force_vy	   R_ground_force_vz	   R_ground_force_px	   R_ground_force_py	   R_ground_force_pz	   L_ground_torque_x	   L_ground_torque_y	   L_ground_torque_z	   R_ground_torque_x	   R_ground_torque_y	   R_ground_torque_z	
          1.51500000	          3.42656958	        676.37756973	         44.33935339	         -0.26091947	          0.00000000	         -0.11145296	         -0.06777381	          0.52477015	          0.00681908	          0.00006335	          0.00000000	          0.00001992	          0.00000000	          0.52582907	          0.00000000	          0.00000000	         -0.00096746	          0.00000000	
          1.52000000	          5.52320411	        682.82058089	         44.63989822	         -0.25849525	          0.00000000	         -0.11155484	         -0.06876956	          0.40032952	          0.00761921	         -0.00000623	          0.00000000	         -0.00000917	          0.00000000	          0.57898052	          0.00000000	          0.00000000	          0.00334962	          0.00000000	
          1.52500000	          7.75821246	        689.88907037	         44.86499936	         -0.25615122	          0.00000000	         -0.11160758	         -0.06184109	          0.15690747	          0.00792726	         -0.00011398	          0.00000000	         -0.00005340	          0.00000000	          0.62508566	          0.00000000	          0.00000000	          0.00966847	          0.00000000	
          1.53000000	         10.13762156	        697.58516936	         45.00746863	         -0.25390357	          0.00000000	         -0.11160770	         -0.04341023	         -0.24203105	          0.00742997	         -0.00026793	          0.00000000	         -0.00011579	          0.00000000	          0.66358368	          0.00000000	          0.00000000	          0.01832956	          0.00000000	
          1.53500000	         12.66433092	        705.88726569	         45.06303814	         -0.25176690	          0.00000000	         -0.11155280	         -0.00931583	         -0.83427845	          0.00573818	         -0.00047496	          0.00000000	         -0.00019879	          0.00000000	          0.69445333	          0.00000000	          0.00000000	          0.02957495	          0.00000000	
          1.54000000	         15.33944356	        714.74383199	         45.02819429	         -0.24975316	          0.00000000	         -0.11144128	          0.04499919	         -1.65492707	          0.00239236	         -0.00073922	          0.00000000	         -0.00030371	          0.00000000	          0.71789290	          0.00000000	          0.00000000	          0.04346336	          0.00000000	
          1.54500000	         18.16512848	        724.06682948	         44.89864771	         -0.24786989	          0.00000000	         -0.11127175	          0.12414728	         -2.73053090	         -0.00312009	         -0.00106014	          0.00000000	         -0.00042986	          0.00000000	          0.73416866	          0.00000000	          0.00000000	          0.05976041	          0.00000000	
          1.55000000	         21.14857630	        733.72774080	         44.66793761	         -0.24612023	          0.00000000	         -0.11104419	          0.23225834	         -4.07105455	         -0.01133130	         -0.00142982	          0.00000000	         -0.00057356	          0.00000000	          0.74320987	          0.00000000	          0.00000000	          0.07780356	          0.00000000	
          1.55500000	         24.30749504	        743.55947897	         44.32649743	         -0.24450378	          0.00000000	         -0.11076050	          0.37220057	         -5.65936460	         -0.02273822	         -0.00182997	          0.00000000	         -0.00072691	          0.00000000	          0.74404940	          0.00000000	          0.00000000	          0.09634432	          0.00000000	
          1.56000000	         27.66982985	        753.36464651	         43.86268847	         -0.24301543	          0.00000000	         -0.11042569	          0.54452087	         -7.43818448	         -0.03772167	         -0.00222826	          0.00000000	         -0.00087639	          0.00000000	          0.73489385	          0.00000000	          0.00000000	          0.11337444	          0.00000000	
          1.56500000	         31.26699370	        762.92847206	         43.26623969	         -0.24164614	          0.00000000	         -0.11004627	          0.74607892	         -9.29470311	         -0.05643443	         -0.00257454	          0.00000000	         -0.00100141	          0.00000000	          0.71347101	          0.00000000	          0.00000000	          0.12594862	          0.00000000	
          1.57000000	         35.12744033	        772.02959954	         42.53544151	         -0.24038554	          0.00000000	         -0.10962816	          0.96837198	        -11.04342270	         -0.07865478	         -0.00279701	          0.00000000	         -0.00107286	          0.00000000	          0.67803134	          0.00000000	          0.00000000	          0.13002353	          0.00000000	
          1.57500000	         39.27743435	        780.44531745	         41.68036531	         -0.23922310	          0.00000000	         -0.10917760	          1.19558381	        -12.40837642	         -0.10360439	         -0.00279897	          0.00000000	         -0.00105196	          0.00000000	          0.62870441	          0.00000000	          0.00000000	          0.12034232	          0.00000000	
          1.58000000	         43.74508258	        787.95236281	         40.71908444	         -0.23814809	          0.00000000	         -0.10870109	          1.40244427	        -13.00655632	         -0.12973299	         -0.00245684	          0.00000000	         -0.00088963	          0.00000000	          0.56758210	          0.00000000	          0.00000000	          0.09040405	          0.00000000	
          1.58500000	         48.55951751	        794.32554897	         39.67419451	         -0.23715033	          0.00000000	         -0.10820533	          1.55205751	        -12.33527229	         -0.15447766	         -0.00162034	          0.00000000	         -0.00052678	          0.00000000	          0.49776045	          0.00000000	          0.00000000	          0.03256955	          0.00000000	
